<svg viewBox="0 0 96 96" xmlns="http://www.w3.org/2000/svg" xmlns:xlink="http://www.w3.org/1999/xlink" id="Icons_PolaroidPictures_M" overflow="hidden"><g id="Icons"><path d="M91.615 12.425 42.885 7.281 41.358 21.751 4.333 29.4 16.274 87.182 64.26 77.265 62.485 68.678 85.421 71.1ZM17.827 84.818 6.7 30.957 50.768 21.849 61.9 75.711ZM74.919 41.4C74.7106 41.1463 74.4796 40.9121 74.229 40.7 76.3859 39.3061 77.0045 36.4276 75.6106 34.2707 74.2167 32.1138 71.3382 31.4952 69.1812 32.8891 67.0243 34.283 66.4058 37.1615 67.7997 39.3184 67.9597 39.5661 68.143 39.798 68.347 40.011 66.7422 40.8297 65.6596 42.4036 65.469 44.195L64.769 50.825 63.069 50.646 64.086 41.011C64.3125 38.8457 63.405 36.7169 61.686 35.381 64.3424 33.9146 65.307 30.5724 63.8405 27.916 62.3741 25.2597 59.0319 24.295 56.3755 25.7615 55.3932 26.3038 54.6005 27.1338 54.104 28.14L52.317 19.492 49.58 20.058 50 16.077 82.818 19.542 79.354 52.359 75.377 51.939 76.077 45.309C76.2276 43.9037 75.8108 42.4965 74.919 41.4ZM71.419 39.453C69.9683 39.3019 68.9147 38.0033 69.0659 36.5526 69.217 35.1018 70.5156 34.0483 71.9663 34.1994 73.417 34.3506 74.4706 35.6491 74.3194 37.0999 74.3193 37.1012 74.3191 37.1026 74.319 37.104 74.1617 38.5513 72.864 39.5991 71.416 39.448ZM74.087 45.1 73.387 51.73 66.757 51.03 67.457 44.4C67.6383 42.5682 69.2702 41.2302 71.102 41.4114 72.9339 41.5927 74.2719 43.2247 74.0906 45.0565 74.0892 45.071 74.0876 45.0855 74.086 45.1ZM55.837 36.51C56.5821 36.1217 57.4259 35.9636 58.261 36.056 60.6309 36.3063 62.3495 38.43 62.1 40.8L61.079 50.43 58.661 50.174ZM55.537 30.222C55.7245 28.4439 57.222 27.0929 59.01 27.089 59.1353 27.0892 59.2604 27.0959 59.385 27.109 61.3073 27.3119 62.7012 29.0347 62.4983 30.957 62.2954 32.8794 60.5726 34.2732 58.6503 34.0703 56.728 33.8674 55.3341 32.1446 55.537 30.2223 55.537 30.2222 55.537 30.2221 55.537 30.222ZM62.062 66.622 59.086 52.231 73.178 53.718 74.443 53.852 81.134 54.558 85.018 17.758 48.218 13.874 47.518 20.474 43.407 21.323 44.664 9.48 89.415 14.205 83.641 68.9Z" fill="#2EAC6D"/><path d="M11.424 34.064 18.911 70.3 55.146 62.813 47.658 26.576ZM20.465 67.935 13.787 35.618 46.1 28.939 52.779 61.257Z" fill="#2EAC6D"/><path d="M36.885 38.012C35.724 37.969 33.079 38.33 31.514 41.932 28.655 39.248 26.091 39.967 25.035 40.46 22.5636 41.7044 21.1825 44.4059 21.621 47.138 22.921 53.438 33.958 58.811 34.428 59.038 34.8345 59.2335 35.3215 59.1328 35.617 58.792 35.958 58.398 43.959 49.092 42.658 42.792 41.9795 40.1118 39.6447 38.1787 36.885 38.012ZM34.6 56.887C31.275 55.16 24.43 50.848 23.58 46.733 23.3128 44.907 24.2375 43.1134 25.88 42.272 26.2802 42.0826 26.7173 41.984 27.16 41.983 28.46 41.983 29.827 42.831 31.123 44.465 31.466 44.8978 32.095 44.9706 32.5278 44.6276 32.6955 44.4947 32.8161 44.3115 32.872 44.105 33.601 41.411 34.986 39.958 36.824 40.011 38.6657 40.1341 40.2244 41.4166 40.7 43.2 41.549 47.31 36.974 53.982 34.6 56.887Z" fill="#2EAC6D"/></g></svg>