<svg viewBox="0 0 96 96" xmlns="http://www.w3.org/2000/svg" xmlns:xlink="http://www.w3.org/1999/xlink" id="Icons_FoodSafety_M" overflow="hidden"><g id="Icons"><path d="M84.663 36.793 66.869 54.586 59.509 47.228 58.095 48.642 66.869 57.414 86.077 38.207 84.663 36.793Z" fill="#2EAC6D"/><path d="M39.72 78.9526C44.5989 72.521 45.19 60.022 41.9046 56.3989 38.097 52.2524 33.8987 53.7051 30.8304 54.7666L30.2288 54.9736C29.5012 55.219 28.7418 55.3571 27.9744 55.3836 27.9478 54.9633 27.8977 54.5447 27.8244 54.13 29.321 53.8466 30.7062 53.1437 31.8186 52.1031 34.176 49.7081 33.9875 45.836 33.9777 45.6725L33.9277 44.7809 33.0361 44.7301C32.8761 44.7201 29.0039 44.5284 26.6561 46.9586 26.2284 47.4337 25.861 47.9598 25.5624 48.525 24.8152 47.3714 23.9445 46.3028 22.9656 45.338L21.5574 46.7589C23.9864 48.9746 25.5475 51.9824 25.9612 55.244 25.5837 55.175 25.2115 55.0793 24.8475 54.9576L24.2586 54.754C21.157 53.6725 16.9051 52.1896 13.1219 56.3585 9.8592 59.9585 10.4607 72.4385 15.3269 78.879 18.4414 83 22.7705 84.0483 27.5615 81.8652 29.033 82.5779 30.6417 82.9624 32.2764 82.9922 35.2669 82.9362 38.0433 81.4295 39.72 78.9526ZM28.1143 48.3281C29.1748 47.3829 30.5274 46.8302 31.9463 46.7622 31.8819 48.1967 31.3469 49.5701 30.4238 50.67 29.5619 51.4648 28.4847 51.9876 27.327 52.173 27.1846 51.7413 27.0138 51.2883 26.8037 50.8119 27.0289 49.8885 27.4791 49.0352 28.1143 48.3281ZM28.0107 79.8623 27.5654 79.6401 27.1201 79.8608C22.9922 81.9038 19.5645 81.167 16.9229 77.6733 12.4111 71.7017 12.168 60.3887 14.6035 57.7017 17.4941 54.5156 20.5996 55.5952 23.6006 56.6417L24.2012 56.8497C25.1968 57.1908 26.2398 57.3734 27.292 57.3907L27.502 57.3936C28.6471 57.4159 29.7873 57.2378 30.8711 56.8673L31.4844 56.6559C34.4473 55.63 37.5107 54.5704 40.4268 57.7459 42.8768 60.449 42.6484 71.781 38.126 77.7434 35.5059 81.1963 32.1025 81.9087 28.0107 79.8623Z" fill="#2EAC6D"/><path d="M31.0049 31.0991 32.1619 42.7358C32.4915 42.7183 32.8218 42.7176 33.1514 42.7339L34.1736 42.792 33 31 33 29 65.9307 29 65.9326 30.9219 64.5881 48.0632 66.4468 49.9214 67.93 31 67.93 27 62 27 62 24.4141 72.707 13.707C73.0907 13.3097 73.0797 12.6767 72.6824 12.293 72.2949 11.9187 71.6805 11.9187 71.293 12.293L60 23.5859 60 27 31 27Z" fill="#2EAC6D"/><path d="M62.0049 80.9951 40.6274 80.9951C39.9773 81.7435 39.2432 82.4146 38.4396 82.9951L63.8545 82.9951 65.6245 60.4119 63.7653 58.553Z" fill="#2EAC6D"/></g></svg>