<svg viewBox="0 0 96 96" xmlns="http://www.w3.org/2000/svg" xmlns:xlink="http://www.w3.org/1999/xlink" id="Icons_Wallet_M" overflow="hidden"><g id="Icons"><path d="M82 43 82 31C82 28.7909 80.2091 27 78 27L19.5 27C17.567 27 16 25.433 16 23.5 16 21.567 17.567 20 19.5 20L73 20C74.6569 20 76 21.3431 76 23L76 25 78 25 78 23C77.9967 20.2399 75.7601 18.0033 73 18L19.5 18C16.6527 18.0019 14.2724 20.1658 14 23L14 69C14.0061 73.968 18.0319 77.9939 23 78L77 78C79.7601 77.9967 81.9967 75.7601 82 73L82 63C84.2091 63 86 61.2091 86 59L86 47C86 44.7909 84.2091 43 82 43ZM80 73C80 74.6569 78.6569 76 77 76L23 76C19.1358 75.9956 16.0044 72.8642 16 69L16 27.739C16.9838 28.5548 18.2219 29.0009 19.5 29L78 29C79.1046 29 80 29.8954 80 31L80 43 72 43C66.4771 43 62 47.4772 62 53 62 58.5228 66.4771 63 72 63L80 63ZM84 59C84 60.1046 83.1046 61 82 61L72 61C67.5817 61 64 57.4183 64 53 64 48.5817 67.5817 45 72 45L82 45C83.1046 45 84 45.8954 84 47Z" fill="#2EAC6D"/><path d="M74 49C71.7909 49 70 50.7909 70 53 70 55.2091 71.7909 57 74 57 76.2091 57 78 55.2091 78 53 78 50.7909 76.2091 49 74 49ZM74 55C72.8954 55 72 54.1046 72 53 72 51.8954 72.8954 51 74 51 75.1046 51 76 51.8954 76 53 76 54.1046 75.1046 55 74 55Z" fill="#2EAC6D"/></g></svg>