<svg viewBox="0 0 96 96" xmlns="http://www.w3.org/2000/svg" xmlns:xlink="http://www.w3.org/1999/xlink" id="Icons_Compost_M" overflow="hidden"><g id="Icons"><path d="M33.872 64C33.872 64.5523 34.3197 65 34.872 65 35.4243 65 35.872 64.5523 35.872 64 35.872 63.125 36.229 61.6 39.292 58.464L39.783 57.988C41.3063 59.668 43.3296 60.8134 45.554 61.255 46.2199 61.3788 46.8957 61.441 47.573 61.441L47.643 61.441C49.6293 61.4409 51.5778 60.898 53.278 59.871 62.027 54.805 63.128 45.471 63.128 35 63.128 35 54.128 37.581 48.11 37.581 47.938 37.581 47.768 37.581 47.601 37.574 41.1581 37.7041 36.0398 43.0311 36.167 49.474 36.1679 50.734 36.3628 51.9864 36.745 53.187 37.1167 54.3028 37.6764 55.3468 38.4 56.274L38.518 56.429 37.88 57.047C35.108 59.881 33.872 62.026 33.872 64ZM38.651 52.585C38.3284 51.5672 38.1648 50.5057 38.166 49.438 38.0664 44.1166 42.2795 39.712 47.6 39.575 47.768 39.575 47.939 39.581 48.111 39.581 52.4992 39.3884 56.8539 38.7242 61.1 37.6 60.857 47.337 59.059 54.213 52.247 58.158 50.8591 58.9964 49.2685 59.4397 47.647 59.44L47.577 59.44C47.0222 59.44 46.4685 59.3891 45.923 59.288 44.1063 58.9241 42.457 57.9801 41.223 56.598L51.37 46.766C51.7636 46.3785 51.7685 45.7454 51.381 45.3518 50.9978 44.9626 50.3731 44.9529 49.978 45.33L39.967 55.03C39.3946 54.2944 38.9498 53.4679 38.651 52.585Z" fill="#2EAC6D"/><path d="M82 21C81.9967 18.2399 79.7601 16.0033 77 16L54 16C54 12.6863 51.3137 10 48 10 44.6863 10 42 12.6863 42 16L19 16C16.2399 16.0033 14.0033 18.2399 14 21L14 24 17.326 24 26.549 78.324C26.9738 80.4577 28.8444 81.9957 31.02 82L64.976 82C67.1612 81.9946 69.0377 80.4448 69.456 78.3L78.695 24 82 24ZM48 12C50.2091 12 52 13.7909 52 16L44 16C44 13.7909 45.7909 12 48 12ZM67.489 77.936C67.2492 79.136 66.1957 79.9999 64.972 80L31.024 80C29.8107 80.0008 28.7634 79.1498 28.516 77.962L19.354 24 76.667 24ZM80 22 16 22 16 21C16 19.3431 17.3431 18 19 18L77 18C78.6569 18 80 19.3431 80 21Z" fill="#2EAC6D"/></g></svg>