<svg viewBox="0 0 96 96" xmlns="http://www.w3.org/2000/svg" xmlns:xlink="http://www.w3.org/1999/xlink" id="Icons_Meditation_M" overflow="hidden"><g id="Icons"><path d="M17.894 68.878C18.6691 69.4186 19.592 69.7074 20.537 69.705 21.6151 69.6993 22.6621 69.3423 23.519 68.688L35.74 59.48C36.1818 59.1486 36.2714 58.5218 35.94 58.08 35.6086 57.6382 34.9818 57.5486 34.54 57.88L22.29 67.109C21.3444 67.8409 20.0384 67.8915 19.039 67.235 18.2481 66.707 17.7633 65.8276 17.739 64.877 17.7264 63.958 18.1561 63.089 18.894 62.541L30.2 54.021 32.365 42.021C32.5634 40.9289 32.9852 39.8895 33.604 38.968 34.1345 38.1594 34.8091 37.455 35.594 36.89 37.5096 35.524 39.6585 34.5192 41.935 33.925 43.8974 33.3518 45.927 33.0408 47.971 33 49.8837 33.0595 51.7881 33.2769 53.665 33.65 53.9541 33.7066 54.2398 33.7791 54.521 33.867 56.5427 34.5046 58.4623 35.4294 60.221 36.613 61.167 37.2652 61.9566 38.119 62.533 39.113 63.0408 39.9503 63.39 40.8741 63.563 41.838L65.758 54.024 77.1 62.566C78.0614 63.2765 78.4685 64.5171 78.115 65.659 77.8267 66.5651 77.1152 67.2741 76.208 67.559 75.3287 67.8262 74.3745 67.653 73.645 67.094L61.419 57.882C60.9772 57.5506 60.3504 57.6402 60.019 58.082 59.6876 58.5238 59.7772 59.1506 60.219 59.482L72.435 68.682C74.5728 70.305 77.6216 69.8876 79.2446 67.7498 79.5764 67.3127 79.8319 66.8224 80 66.3 80.6469 64.3267 79.9458 62.1615 78.265 60.942L67.585 52.9 65.528 41.48C65.3055 40.2475 64.8551 39.0674 64.2 38 63.4796 36.7864 62.502 35.7453 61.336 34.95 59.4192 33.6579 57.3269 32.6476 55.123 31.95 54.7726 31.8413 54.4168 31.7508 54.057 31.679 52.0549 31.285 50.0236 31.0579 47.984 31 45.7559 31.0377 43.5428 31.372 41.403 31.994 38.9015 32.6489 36.5405 33.7546 34.436 35.257 32.3211 36.7973 30.8768 39.0894 30.4 41.662L28.372 52.9 17.693 60.942C15.5405 62.5446 15.0948 65.5887 16.6974 67.7412 17.0282 68.1855 17.4326 68.57 17.893 68.878Z" fill="#2EAC6D"/><path d="M48.023 29.008C52.4413 29.008 56.023 25.4263 56.023 21.008 56.023 16.5897 52.4413 13.008 48.023 13.008 43.6047 13.008 40.023 16.5897 40.023 21.008 40.023 25.4263 43.6047 29.008 48.023 29.008ZM48.023 15.008C51.3367 15.008 54.023 17.6943 54.023 21.008 54.023 24.3217 51.3367 27.008 48.023 27.008 44.7093 27.008 42.023 24.3217 42.023 21.008 42.023 17.693 44.708 15.0044 48.023 15Z" fill="#2EAC6D"/><path d="M74.245 71.141C68.5471 72.4212 62.7759 73.3496 56.964 73.921 57.5782 74.4461 58.0954 75.075 58.492 75.779 63.9441 75.185 69.3586 74.286 74.71 73.086 76.2362 72.71 77.7782 73.6424 78.1542 75.1686 78.5264 76.6798 77.6158 78.2097 76.11 78.603L75.936 78.644C70.3594 80.0124 64.6954 80.996 58.984 81.588 58.7052 82.3777 58.266 83.1012 57.694 83.713 63.9941 83.1481 70.2421 82.1047 76.384 80.592L76.578 80.548C79.1692 79.878 80.7265 77.2343 80.0565 74.6431 79.3961 72.0891 76.8139 70.5325 74.247 71.141Z" fill="#2EAC6D"/><path d="M52.512 74.212 52.352 74.218C52.24 74.23 51.917 74.25 51.682 74.265L51.412 74.282C50.3 74.369 49.891 74.37 48.368 74.375L48 74.375C39.1539 74.3875 30.3405 73.3015 21.762 71.142 19.1566 70.5297 16.5482 72.1455 15.9359 74.7509 15.3343 77.3106 16.8839 79.8831 19.428 80.548 28.7723 82.885 38.3679 84.0672 48 84.068L48 84.068C48.3 84.068 48.624 84.074 48.961 84.08 49.353 84.087 49.761 84.094 50.178 84.094 52.329 84.094 54.685 83.899 56.147 82.462 57.002 81.5868 57.4557 80.3962 57.4 79.174 57.4003 78.768 57.352 78.3635 57.256 77.969 56.7081 75.7867 54.7617 74.2453 52.512 74.212ZM54.748 81.035C53.6 82.162 50.937 82.117 49 82.08 48.649 82.074 48.315 82.068 48 82.068L48 82.068C38.5373 82.0676 29.1103 80.9069 19.93 78.612 18.4128 78.1991 17.5177 76.6344 17.9306 75.1173 18.3295 73.6516 19.8088 72.7572 21.292 73.085 30.0289 75.2665 38.9998 76.3713 48.005 76.375L48.374 76.375C49.915 76.375 50.38 76.369 51.563 76.275L51.808 76.26C52.038 76.245 52.344 76.225 52.508 76.211 53.8407 76.2394 54.9905 77.1539 55.318 78.446 55.3752 78.6841 55.4041 78.9281 55.404 79.173 55.4532 79.8578 55.2156 80.5322 54.748 81.035Z" fill="#2EAC6D"/><path d="M37.389 45.255 37.389 71.842C38.055 71.909 38.721 71.966 39.389 72.02L39.389 45.255C39.389 44.7027 38.9413 44.255 38.389 44.255 37.8367 44.255 37.389 44.7027 37.389 45.255Z" fill="#2EAC6D"/><path d="M56.615 45.255 56.615 71.943C57.265 71.885 57.929 71.82 58.615 71.743L58.615 45.255C58.615 44.7027 58.1673 44.255 57.615 44.255 57.0627 44.255 56.615 44.7027 56.615 45.255Z" fill="#2EAC6D"/></g></svg>