<svg viewBox="0 0 96 96" xmlns="http://www.w3.org/2000/svg" xmlns:xlink="http://www.w3.org/1999/xlink" id="Icons_RightAndLeftBrain_M" overflow="hidden"><g id="Icons"><path d="M77.8279 32.9733C77.551 32.8066 77.2677 32.6519 76.9779 32.5091 78.4967 27.4239 75.6063 22.0701 70.5215 20.55 70.4312 20.5233 70.3405 20.4977 70.2494 20.4731 69.8988 15.1514 65.4832 11.0123 60.15 11.006 59.9254 11.006 59.6996 11.0135 59.4725 11.0284 54.1446 11.3808 50.0043 15.8073 50.0084 21.1469L50.0084 77.4216C49.9946 81.6196 53.3866 85.034 57.5846 85.0479L57.6089 85.0479C60.9397 85.0478 63.8824 82.8788 64.8682 79.6972 70.8747 81.0173 76.8141 77.2183 78.1342 71.2118 78.3083 70.4197 78.3954 69.611 78.3938 68.8L78.3938 68.7C84.4969 65.9074 87.1806 58.6961 84.3881 52.593 83.76 51.2203 82.8816 49.9767 81.798 48.9257 85.1057 43.4241 83.3285 36.2828 77.8279 32.9733ZM83.49 57.6459C83.4833 61.6171 81.169 65.2223 77.5611 66.8818L76.3937 67.4163 76.3937 68.8038C76.4114 73.8427 72.3409 77.9418 67.3021 77.9594 66.6281 77.9618 65.9559 77.8895 65.2979 77.7438L63.5022 77.3487 62.9578 79.1048C62.0433 82.0593 58.9068 83.713 55.9523 82.7984 53.5975 82.0695 51.9962 79.8864 52.0083 77.4214L52.0083 21.1456C52.0142 16.8635 55.3322 13.3159 59.6043 13.024 59.7874 13.012 59.9693 13.006 60.1499 13.006 64.4268 13.0191 67.9656 16.3372 68.2537 20.6044L68.348 22.0354 69.7337 22.4054C69.8062 22.4247 69.8782 22.4454 69.9488 22.4662 73.9723 23.6742 76.2591 27.9106 75.0613 31.9371L74.5778 33.5561 76.0933 34.3032C76.3311 34.4205 76.5679 34.5498 76.7969 34.6875 81.3459 37.4315 82.8161 43.3394 80.0838 47.8954L79.2648 49.2577 80.407 50.3632C82.3745 52.2758 83.4862 54.902 83.49 57.6459Z" fill="#2EAC6D"/><path d="M27.81 59.0882C29.3159 59.0871 30.5357 57.8655 30.5347 56.3597 30.5345 56.0953 30.4959 55.8324 30.42 55.5792L30.42 55.5786C29.9901 54.1392 28.4748 53.3209 27.0354 53.7508 27.0333 53.7514 27.0313 53.752 27.0292 53.7526L27.0279 53.7526C25.5865 54.186 24.7693 55.7057 25.2027 57.1472 25.5487 58.2983 26.6082 59.0868 27.8102 59.0878ZM27.5221 55.6982 27.5741 55.6738 27.6429 55.6526C27.6989 55.6416 27.7559 55.6364 27.8129 55.6371 28.2141 55.6365 28.5399 55.9613 28.5404 56.3626 28.541 56.7638 28.2162 57.0895 27.815 57.0901 27.4137 57.0907 27.088 56.7659 27.0874 56.3646 27.087 56.0758 27.2578 55.8141 27.5223 55.6982Z" fill="#2EAC6D"/><path d="M31.85 43.3939C33.3559 43.3928 34.5757 42.1711 34.5745 40.6652 34.5743 40.4011 34.5358 40.1384 34.46 39.8853L34.46 39.8853C34.0267 38.4445 32.5074 37.6278 31.0666 38.0611 29.6258 38.4945 28.8091 40.0137 29.2425 41.4545 29.5886 42.6054 30.6481 43.3936 31.85 43.3941ZM31.6431 39.9739C32.0267 39.8584 32.4312 40.0757 32.5468 40.4592 32.6623 40.8428 32.445 41.2473 32.0614 41.3629 31.6779 41.4784 31.2733 41.2611 31.1578 40.8776 31.1577 40.8772 31.1576 40.8769 31.1575 40.8766 31.0425 40.4935 31.2596 40.0896 31.6426 39.9742Z" fill="#2EAC6D"/><path d="M17.6289 68.7992C17.6182 74.9487 22.5948 79.9425 28.7443 79.9532 28.7443 79.9532 28.7444 79.9532 28.7445 79.9532L28.7622 79.9532C29.565 79.9532 30.3654 79.8664 31.1495 79.6943 32.3932 83.7032 36.6512 85.9448 40.6601 84.7012 43.8479 83.7122 46.0174 80.7592 46.0082 77.4216L46.0082 21.1429C46.0096 15.5441 41.472 11.0043 35.8732 11.0029 35.8731 11.0029 35.8729 11.0029 35.8728 11.0029L35.8707 11.0029C30.5373 11.0079 26.1211 15.1468 25.7707 20.4686 20.6423 21.8359 17.5931 27.1015 18.96 32.23 18.9848 32.3233 19.0111 32.4163 19.0388 32.509 13.2818 35.3467 10.9146 42.3136 13.751 48.0712 13.895 48.3638 14.0512 48.65 14.2197 48.9297 9.40349 53.6006 9.28573 61.2915 13.9567 66.1077 15.0089 67.1926 16.2542 68.0717 17.6289 68.6997ZM15.3923 64.7145C11.4978 60.6884 11.5962 54.27 15.6123 50.3652L16.7523 49.2593 15.9331 47.8983C15.794 47.6669 15.6631 47.4283 15.5451 47.1874 13.2033 42.4201 15.1616 36.6568 19.923 34.3031L21.4396 33.5558 20.9551 31.9358C20.9333 31.8631 20.9126 31.7903 20.8927 31.7149 19.8152 27.6545 22.2276 23.4881 26.2854 22.4011L27.6715 22.0316 27.7659 20.6C28.0569 16.3339 31.5947 13.0176 35.8707 13.0027L35.8726 13.0027C40.3668 13.0037 44.0092 16.6477 44.0082 21.1419 44.0082 21.1422 44.0082 21.1424 44.0082 21.1427L44.0082 77.4263C44.0163 80.5191 41.5156 83.0328 38.4228 83.0409 35.9642 83.0473 33.7889 81.4493 33.06 79.1012L32.5152 77.3467 30.721 77.7408C30.073 77.8827 29.4115 77.9539 28.7481 77.9532 23.7032 77.9445 19.6206 73.8477 19.6293 68.8028 19.6293 68.8016 19.6293 68.8004 19.6293 68.7992L19.6293 67.4141 18.46 66.88C17.3111 66.3562 16.2706 65.6217 15.3923 64.7145Z" fill="#2EAC6D"/><path d="M20.152 57.7042 20.673 59.4396 22.4371 59.7457C22.7059 60.183 23.027 60.586 23.3932 60.9457L23.3522 62.7362 24.9442 63.5935 26.4153 62.5722C26.8682 62.6743 27.331 62.7258 27.7953 62.7258 27.842 62.7258 27.8889 62.7253 27.9362 62.7242L29.1602 64.0176 30.8923 63.4924 31.1923 61.731C31.6297 61.4615 32.0327 61.1397 32.3923 60.7727L34.1784 60.8257 35.0394 59.2252 34.0103 57.7658C34.1224 57.2667 34.1734 56.7558 34.1624 56.2444L35.4624 55.0171 34.9413 53.2826 33.1803 52.9826C32.9076 52.5447 32.5825 52.1417 32.2121 51.7826L32.2652 49.9961 30.6652 49.1338 29.2042 50.1631C28.7541 50.0627 28.2944 50.012 27.8333 50.012 27.78 50.012 27.7266 50.0127 27.6733 50.0141L26.4473 48.7077 24.7122 49.2289 24.4122 50.9914C23.9797 51.2638 23.5818 51.5876 23.2272 51.9556L21.4341 51.9046 20.573 53.5046 21.598 54.962C21.4899 55.464 21.4433 55.9773 21.459 56.4905ZM23.486 57.338 23.458 56.4294C23.4472 56.0784 23.4791 55.7274 23.553 55.3841L23.7374 54.5276 23.3488 53.9751C23.3427 53.9665 23.3464 53.9597 23.3569 53.96L24.054 53.98 24.6675 53.3433C24.9101 53.0914 25.1824 52.8698 25.4783 52.6833L26.234 52.2072 26.3467 51.5452C26.3485 51.5347 26.3559 51.5325 26.3632 51.5403L26.8284 52.0359 27.7242 52.0131 27.8336 52.0118C28.1482 52.0118 28.4618 52.0464 28.7689 52.1149L29.6328 52.3075 30.1928 51.9133C30.2015 51.9072 30.2083 51.9109 30.208 51.9215L30.188 52.6042 30.8208 53.218C31.0743 53.4639 31.2969 53.7398 31.4836 54.0397L31.9588 54.8031 32.6327 54.918C32.6432 54.9197 32.6454 54.9271 32.6377 54.9344L32.1449 55.3997 32.1639 56.288C32.1714 56.6376 32.1365 56.9868 32.0599 57.328L31.8656 58.1936 32.2599 58.7528C32.266 58.7614 32.2623 58.7682 32.2518 58.7679L31.5776 58.7479 30.9651 59.3729C30.7191 59.624 30.4434 59.8441 30.1441 60.0285L29.3741 60.5032 29.2576 61.1873C29.2558 61.1973 29.2484 61.2 29.2412 61.1923L28.7801 60.7052 27.8929 60.7252 27.7967 60.7263C27.4805 60.7262 27.1652 60.6911 26.8567 60.6217L25.9988 60.4282 25.4131 60.8348C25.4046 60.8408 25.3978 60.8371 25.398 60.8267L25.4141 60.1267 24.7975 59.521C24.5467 59.2746 24.3268 58.9986 24.1427 58.699L23.6701 57.93 22.9986 57.8135C22.9881 57.8117 22.9859 57.8043 22.9937 57.797Z" fill="#2EAC6D"/><path d="M24.1981 42.0237 24.7181 43.7582 26.4801 44.0582C26.752 44.4914 27.0761 44.8895 27.4451 45.2436L27.3781 47.0501 28.9781 47.9113 30.44 46.8821C30.8929 46.9843 31.3557 47.0358 31.82 47.0357 31.8672 47.0357 31.9143 47.0357 31.9616 47.0341L33.1886 48.3341 34.9228 47.813 35.2298 46.0445C35.6622 45.7716 36.0601 45.4475 36.4148 45.0792L38.2008 45.1332 39.0619 43.5327 38.0359 42.0734C38.1539 41.5686 38.2097 41.0512 38.2018 40.5329L39.5018 39.3046 38.98 37.5705 37.2179 37.2705C36.946 36.8374 36.6219 36.4393 36.2529 36.0852L36.3078 34.2907 34.7078 33.4284 33.2458 34.4548C32.7901 34.352 32.3245 34.3001 31.8574 34.3 31.8135 34.3 31.7696 34.3005 31.7256 34.3014L30.5015 33.009 28.7634 33.5342 28.4574 35.2977C28.0216 35.5669 27.6202 35.8884 27.2623 36.2549L25.4762 36.2009 24.6012 37.8103 25.6462 39.2758C25.5352 39.7746 25.4855 40.285 25.4983 40.7958ZM27.52 41.6382 27.4977 40.7451C27.4889 40.3975 27.5228 40.0502 27.5984 39.7108L27.7922 38.8408 27.389 38.2755C27.3829 38.2668 27.3865 38.26 27.3971 38.2603L28.0797 38.281 28.6932 37.6527C28.9375 37.4026 29.2114 37.1832 29.5088 36.9994L30.2742 36.5265 30.3953 35.828C30.3971 35.818 30.4045 35.8154 30.4117 35.8231L30.8823 36.3198 31.7675 36.3013 31.8575 36.3004C32.1767 36.3005 32.4949 36.3359 32.8063 36.406L33.67 36.6 34.2328 36.2049C34.2415 36.1989 34.2483 36.2025 34.2479 36.2131L34.2266 36.9122 34.8671 37.5269C35.1182 37.7679 35.3388 38.0389 35.5239 38.3336L35.9999 39.0916 36.671 39.2058C36.681 39.2076 36.6836 39.215 36.676 39.2223L36.1877 39.6834 36.201 40.5634C36.2064 40.9183 36.1682 41.2726 36.0874 41.6182L35.8834 42.4909 36.2834 43.0593C36.2895 43.0679 36.2858 43.0747 36.2753 43.0744L35.5885 43.0536 34.9748 43.691C34.7314 43.9438 34.4584 44.1662 34.1617 44.3535L33.4106 44.8275 33.2924 45.5084C33.2906 45.5184 33.2832 45.521 33.2759 45.5134L32.8052 45.0145 31.916 45.0345 31.8194 45.0356C31.5033 45.0355 31.1882 45.0005 30.8799 44.931L30.0138 44.7356 29.467 45.1208C29.4583 45.127 29.4515 45.1233 29.4519 45.1126L29.4776 44.4215 28.8305 43.8005C28.5799 43.56 28.3598 43.2897 28.1752 42.9956L27.6989 42.2368 27.0294 42.1228C27.0189 42.121 27.0167 42.1136 27.0244 42.1064Z" fill="#2EAC6D"/><path d="M70.5137 41.1182C68.5843 40.7019 66.6014 41.5432 65.56 43.22 64.5167 41.5437 62.5329 40.7033 60.6029 41.12 58.3487 41.729 56.7481 43.7272 56.6459 46.06 56.6459 51.3808 64.6137 57.5356 64.9525 57.7948L65.56 58.2592 66.1674 57.7948C66.5063 57.5348 74.4731 51.3808 74.4731 46.06 74.3709 43.726 72.7692 41.7269 70.5137 41.1182ZM65.56 55.7222C63.182 53.7661 58.6459 49.354 58.6459 46.0596 58.7423 44.6519 59.7097 43.4552 61.0659 43.0659 61.2405 43.0236 61.4195 43.0021 61.5991 43.002 62.7456 43.002 63.8198 43.8965 64.6675 45.5781L65.5525 47.3336C65.5554 47.3383 65.5615 47.3398 65.5662 47.337 65.5676 47.3361 65.5688 47.335 65.5696 47.3336L66.4536 45.5776C67.4302 43.6376 68.7136 42.7461 70.0513 43.064 71.4085 43.4536 72.3765 44.6513 72.4727 46.06 72.4727 49.3486 67.9365 53.7642 65.56 55.7222Z" fill="#2EAC6D"/></g></svg>