<svg viewBox="0 0 96 96" xmlns="http://www.w3.org/2000/svg" xmlns:xlink="http://www.w3.org/1999/xlink" id="Icons_MountainScene_M" overflow="hidden"><g id="Icons"><path d="M21.688 32.586C21.7507 31.974 21.8957 31.3732 22.119 30.8L21.664 30.8 12.9 30.735C10.4159 30.4466 8.63599 28.1991 8.92437 25.715 9.20624 23.2871 11.3642 21.521 13.8 21.725L14.885 21.833C14.8905 21.8336 14.8954 21.8295 14.896 21.8241 14.896 21.8237 14.896 21.8234 14.896 21.823L14.896 20.733C14.9057 17.6347 17.4252 15.1309 20.5235 15.1406 22.62 15.1471 24.538 16.3222 25.496 18.187L25.889 18.952C25.8926 18.9544 25.8974 18.9544 25.901 18.952L26.714 18.67C29.0469 17.8456 31.6063 19.0684 32.4307 21.4013 32.51 21.6256 32.5713 21.8559 32.614 22.09 32.831 22.07 33.048 22.05 33.266 22.05 33.7338 22.0515 34.2005 22.0964 34.66 22.184 34.643 22.065 34.629 21.945 34.607 21.83 34.0147 18.2966 30.6701 15.9124 27.1368 16.5048 27.0431 16.5205 26.9499 16.5382 26.857 16.558 24.5475 13.0459 19.8281 12.071 16.316 14.3805 14.4796 15.5881 13.2549 17.5305 12.957 19.708 9.35891 19.918 6.6123 23.005 6.82227 26.6031 7.01118 29.8402 9.54825 32.4476 12.779 32.725L21.639 32.795 21.666 32.795C21.683 32.728 21.682 32.658 21.688 32.586Z" fill="#2EAC6D"/><path d="M42.438 38 28.07 38C25.44 37.7988 23.471 35.5037 23.6722 32.8736 23.847 30.588 25.6211 28.7489 27.899 28.492 28.4762 25.5205 31.353 23.5795 34.3246 24.1567 35.6916 24.4222 36.9064 25.1982 37.722 26.327 37.9945 26.2831 38.27 26.2597 38.546 26.257 40.7936 26.2659 42.7252 27.8537 43.169 30.057 45.3469 30.4271 46.8124 32.4927 46.4423 34.6706 46.1117 36.6163 44.4113 38.03 42.438 38ZM28.433 30.462C26.8988 30.4633 25.6561 31.7082 25.6574 33.2424 25.6587 34.6718 26.7443 35.8669 28.167 36.005L42.51 36C43.6146 36.0008 44.5107 35.1061 44.5115 34.0015 44.5115 33.9753 44.511 33.9492 44.51 33.923 44.4522 32.8367 43.5488 31.9888 42.461 32L41.261 32C41.2555 32 41.251 31.9955 41.251 31.99L41.251 30.996C41.256 29.4886 40.0383 28.2625 38.531 28.257 38.2099 28.2431 37.8896 28.2987 37.592 28.42L36.774 28.72C36.769 28.7221 36.7633 28.7199 36.761 28.715L36.361 27.943C35.4681 26.241 33.3646 25.5852 31.6626 26.4781 30.5385 27.0678 29.8247 28.2228 29.8 29.492L29.786 30.57C29.786 30.5755 29.7816 30.58 29.776 30.58 29.7757 30.5801 29.7753 30.58 29.775 30.58L28.703 30.48C28.612 30.466 28.522 30.462 28.433 30.462Z" fill="#2EAC6D"/><path d="M86.876 61.555C86.802 61.555 86.728 61.555 86.653 61.547L75.72 61.547C73.6008 61.4816 71.9358 59.7107 72.0012 57.5915 72.0257 56.7989 72.2949 56.0334 72.772 55.4 73.3957 54.5407 74.3504 53.9816 75.405 53.858 75.9647 51.4859 78.3414 50.0167 80.7135 50.5764 81.7054 50.8104 82.5857 51.3806 83.205 52.19 83.367 52.17 83.524 52.176 83.695 52.159 85.4452 52.1639 86.9719 53.3488 87.411 55.043 89.1976 55.342 90.4036 57.0328 90.1046 58.8194 89.8405 60.3976 88.4761 61.5549 86.876 61.558ZM86.72 59.55C87.0801 59.5868 87.4395 59.474 87.714 59.238 88.2447 58.771 88.2964 57.9622 87.8294 57.4315 87.6062 57.1779 87.292 57.0228 86.955 57 86.8991 56.9955 86.8429 56.9955 86.787 57L86.53 57 85.539 57C85.5335 57 85.529 56.9955 85.529 56.99L85.529 56C85.5307 54.9838 84.7082 54.1587 83.692 54.157 83.6917 54.157 83.6913 54.157 83.691 54.157L83.691 54.157C83.4815 54.1572 83.2735 54.193 83.076 54.263L82.257 54.554C82.2534 54.5564 82.2486 54.5564 82.245 54.554L81.851 53.779C81.2486 52.5921 79.798 52.1184 78.6112 52.7208 77.8028 53.1312 77.2931 53.9604 77.292 54.867L77.292 56.015C77.292 56.0205 77.2876 56.025 77.2821 56.0251 77.2817 56.0251 77.2813 56.025 77.281 56.025L76.146 55.855C75.1313 55.6811 74.1678 56.3626 73.9939 57.3773 73.82 58.392 74.5015 59.3555 75.5162 59.5294 75.5981 59.5435 75.6809 59.552 75.764 59.555Z" fill="#2EAC6D"/><path d="M67.185 40 67.74 37.582C67.908 36.403 69.747 34.003 71.525 31.682 74.561 27.721 78 23.232 78 19.44 78 11.786 71.832 6.44 63 6.44 54.168 6.44 48 11.786 48 19.44 48 23.232 51.439 27.721 54.475 31.683 56.253 34.003 58.092 36.403 58.275 37.665L58.815 40 60 40 60 42 58 42 58 47.44C58.0163 48.306 58.7228 48.9996 59.589 49L66.412 49C67.2664 48.9995 67.9678 48.3238 68 47.47L68 42 66 42 66 40ZM63.133 8.633C63.699 8.633 65.765 10.071 67.066 13.306 68.0655 15.9455 68.288 18.816 67.707 21.578 67.2317 23.852 66.5537 26.0789 65.681 28.232 65.25 29.397 64.881 30.403 64.668 31.17 64.155 33.053 63.268 36.735 63.007 37.849 63.001 37.874 62.992 37.874 62.988 37.849 62.788 36.754 62.119 33.083 61.599 31.171 61.2636 30.1 60.8718 29.0475 60.425 28.018 59.493 25.9514 58.7785 23.7935 58.293 21.579 57.712 18.8171 57.9345 15.9465 58.934 13.307 60.174 10.224 62.439 8.634 63.133 8.633ZM76 19.44C76 22.554 72.639 26.94 69.938 30.466 67.738 33.335 66.002 35.602 65.775 37.215L65.6 38 65.033 38C65.253 37.077 66.092 33.57 66.603 31.7 66.788 31.018 67.147 30.05 67.562 28.93 68.4835 26.6541 69.1948 24.2986 69.687 21.893 70.3327 18.7747 70.0689 15.5366 68.927 12.564 68.3937 11.2222 67.6512 9.97337 66.727 8.864 66.717 8.852 66.721 8.845 66.737 8.848 72.332 10.067 76 14.08 76 19.44ZM56.063 30.466C53.361 26.941 50 22.554 50 19.44 50 14.027 53.741 9.99 59.436 8.806 59.453 8.806 59.457 8.806 59.445 8.823 58.436 9.91487 57.6339 11.1811 57.078 12.56 55.9361 15.5326 55.6723 18.7707 56.318 21.889 56.8228 24.2569 57.5784 26.5642 58.572 28.772 58.9883 29.7273 59.3554 30.7032 59.672 31.696 60.187 33.587 60.842 37.186 60.987 37.996L60.4 37.996 60.237 37.296C60 35.6 58.261 33.335 56.063 30.466ZM66 47 60 47 60 44 66 44ZM64 42 62 42 62 40 64 40Z" fill="#2EAC6D"/><path d="M12.469 88 25.6 66.645 34.5 60.678 39.7 65.424 44.9 60.68 53.832 66.721 66.908 88 69.255 88 41.12 42.21C40.5457 41.4258 39.4444 41.2556 38.6602 41.8299 38.6601 41.8299 38.6601 41.83 38.66 41.83 38.5144 41.9361 38.3862 42.0644 38.28 42.21L10.122 88ZM39.708 43.733 51.294 62.589 44.718 58.141 39.7 62.716 34.693 58.143 28.12 62.549 39.691 43.733C39.6939 43.7283 39.7001 43.7269 39.7048 43.7298 39.7061 43.7306 39.7072 43.7317 39.708 43.733Z" fill="#2EAC6D"/><path d="M66.25 60.273 83.57 88 85.928 88 67.65 58.74C67.1662 57.9613 66.1427 57.7222 65.3639 58.2061 65.1473 58.3407 64.9646 58.5234 64.83 58.74L59.8 66.867 60.972 68.774 66.235 60.274C66.2384 60.2696 66.2446 60.2688 66.249 60.2721 66.2494 60.2724 66.2497 60.2727 66.25 60.273Z" fill="#2EAC6D"/></g></svg>