<svg viewBox="0 0 96 96" xmlns="http://www.w3.org/2000/svg" xmlns:xlink="http://www.w3.org/1999/xlink" id="Icons_BusinessGrowth_LTR_M" overflow="hidden"><path d="M61.09 55.254 61.09 49 59.09 49 59.09 57.253 61.09 55.254Z" fill="#2EAC6D"/><path d="M65.092 51.252 65.092 35C65.092 34.4477 64.6443 34 64.092 34 63.5397 34 63.092 34.4477 63.092 35L63.092 53.252Z" fill="#2EAC6D"/><path d="M57.092 59.251 57.092 35C57.092 34.4477 56.6443 34 56.092 34 55.5397 34 55.092 34.4477 55.092 35L55.092 61.251Z" fill="#2EAC6D"/><path d="M43.414 53.757 43.414 35C43.414 34.4477 42.9663 34 42.414 34 41.8617 34 41.414 34.4477 41.414 35L41.414 51.757Z" fill="#2EAC6D"/><path d="M35.414 49.929 35.414 35C35.414 34.4477 34.9663 34 34.414 34 33.8617 34 33.414 34.4477 33.414 35L33.414 51.929Z" fill="#2EAC6D"/><path d="M6.643 49.218C7.13645 49.4661 7.73755 49.2671 7.9856 48.7737 8.23214 48.2833 8.03727 47.6858 7.549 47.435 7.0175 47.128 6.73707 46.5195 6.849 45.916L9.356 31.672C9.41135 31.4852 9.5148 31.3162 9.656 31.182 10.7168 30.3845 11.9195 29.7957 13.2 29.447 14.2407 29.1679 15.3117 29.0177 16.389 29 17.4298 29.0103 18.4646 29.1593 19.466 29.443 20.7538 29.7911 21.9634 30.3817 23.03 31.183 23.172 31.2896 23.2724 31.4424 23.314 31.615L26.43 48.185C26.5329 48.7276 27.0561 49.0841 27.5988 48.9812 28.0026 48.9047 28.3184 48.5888 28.395 48.185L31.495 31.674C31.5319 31.4793 31.6386 31.3047 31.795 31.183 32.8639 30.3814 34.0754 29.7902 35.365 29.441 36.3653 29.1584 37.3987 29.0101 38.438 29 39.5095 29.0175 40.5747 29.1662 41.61 29.443 42.9111 29.7967 44.1329 30.395 45.21 31.206 45.3138 31.3179 45.3971 31.4472 45.456 31.588L48.1 48.158C48.1767 48.6378 48.5872 48.993 49.073 49 49.5552 48.9936 49.9694 48.656 50.073 48.185L53.173 31.674C53.2094 31.4791 53.3162 31.3044 53.473 31.183 54.5418 30.3812 55.7533 29.79 57.043 29.441 58.0429 29.1584 59.076 29.0101 60.115 29 61.1868 29.0174 62.2524 29.1662 63.288 29.443 64.5891 29.7967 65.8109 30.395 66.888 31.206 66.9921 31.3188 67.0754 31.4492 67.134 31.591L69.6 46.747 71.339 45 69.089 31.183C68.9289 30.5486 68.5645 29.9846 68.052 29.578 66.7756 28.6218 65.3288 27.9173 63.789 27.502 62.5895 27.185 61.3556 27.0164 60.115 27 58.9 27.0103 57.6918 27.1818 56.522 27.51 54.9872 27.9257 53.5453 28.6292 52.273 29.583 51.7368 29.9949 51.3652 30.5846 51.225 31.246L49.18 42.113C49.174 42.144 49.165 42.144 49.16 42.113L47.411 31.187C47.251 30.5526 46.8865 29.9886 46.374 29.582 45.0977 28.6256 43.6509 27.9211 42.111 27.506 40.912 27.1877 39.6784 27.0178 38.438 27 37.223 27.0101 36.0148 27.1816 34.845 27.51 33.3114 27.9258 31.8709 28.6293 30.6 29.583 30.0631 29.9944 29.6911 30.5843 29.551 31.246L27.423 42.539C27.423 42.568 27.409 42.568 27.403 42.539L25.268 31.189C25.1221 30.5481 24.7544 29.9793 24.23 29.583 22.9601 28.6294 21.5201 27.9265 19.987 27.512 18.8151 27.1821 17.6044 27.0099 16.387 27 15.1414 27.0181 13.9028 27.1894 12.699 27.51 11.1827 27.9186 9.75759 28.6108 8.499 29.55 7.94629 29.975 7.55763 30.5781 7.399 31.257L4.876 45.576C4.6154 47.0444 5.32836 48.5139 6.643 49.218Z" fill="#2EAC6D"/><path d="M38.412 25C35.6506 25 33.412 22.7614 33.412 20 33.412 17.2386 35.6506 15 38.412 15 41.1734 15 43.412 17.2386 43.412 20 43.4087 22.7601 41.1721 24.9967 38.412 25ZM38.412 17C36.7551 17 35.412 18.3431 35.412 20 35.412 21.6569 36.7551 23 38.412 23 40.0689 23 41.412 21.6569 41.412 20 41.412 18.3431 40.0689 17 38.412 17Z" fill="#2EAC6D"/><path d="M16.412 25C13.6506 25 11.412 22.7614 11.412 20 11.412 17.2386 13.6506 15 16.412 15 19.1734 15 21.412 17.2386 21.412 20 21.4087 22.7601 19.1721 24.9967 16.412 25ZM16.412 17C14.7551 17 13.412 18.3431 13.412 20 13.412 21.6569 14.7551 23 16.412 23 18.0689 23 19.412 21.6569 19.412 20 19.412 18.3431 18.0689 17 16.412 17Z" fill="#2EAC6D"/><path d="M60.09 25C57.3286 25 55.09 22.7614 55.09 20 55.09 17.2386 57.3286 15 60.09 15 62.8514 15 65.09 17.2386 65.09 20 65.0867 22.7601 62.85 24.9967 60.09 25ZM60.09 17C58.4331 17 57.09 18.3431 57.09 20 57.09 21.6569 58.4331 23 60.09 23 61.7469 23 63.09 21.6569 63.09 20 63.09 18.3431 61.7469 17 60.09 17Z" fill="#2EAC6D"/><path d="M11.415 56.017 11.415 71.022 14.322 71.022 17.412 67.931 17.412 56.017 19.412 56.017 19.412 65.928 21.412 63.928 21.412 56.017 25.228 56.017 21.415 42.276 21.415 35C21.415 34.4477 20.9673 34 20.415 34 19.8627 34 19.415 34.4477 19.415 35L19.415 42.413 22.601 54.013 10.23 54.013 13.415 42.545 13.415 34.996C13.415 34.4437 12.9673 33.996 12.415 33.996 11.8627 33.996 11.415 34.4437 11.415 34.996L11.415 42.272 7.6 56.017ZM13.415 56.017 15.415 56.017 15.415 69.022 13.415 69.022Z" fill="#2EAC6D"/><path d="M76 32C75.4477 32 75 32.4477 75 33 75 33.5523 75.4477 34 76 34L86.562 34C86.575 34 86.578 34.008 86.569 34.017L53 67.586 37.5 52.086 8.293 81.293C7.89575 81.6767 7.88475 82.3097 8.26842 82.707 8.6521 83.1043 9.28517 83.1153 9.68242 82.7316 9.69076 82.7235 9.69895 82.7153 9.707 82.707L37.5 54.914 53 70.414 87.983 35.431C87.992 35.422 88 35.425 88 35.438L88 46C88 46.5523 88.4477 47 89 47 89.5523 47 90 46.5523 90 46L90 32Z" fill="#2EAC6D"/></svg>